<svg width="50" height="48" viewBox="0 0 50 48" fill="none" xmlns="http://www.w3.org/2000/svg">
<path d="M40.4569 6.63345H30.4572L26.4779 2.73401L25.142 1.43262L23.7107 2.87861L19.8368 6.63345H9.54082H8.10484V8.37336V17.4877L2.76591 22.8814L1.39453 24.1828L2.43203 25.2307L8.10484 30.9616V39.5103V41.0055H9.49311H19.8368L24.0924 45.3049L25.1146 46.4028L26.2017 45.3049L30.4572 41.0055H40.5523H41.9423V39.1729V30.9616L47.4598 25.3878L48.6153 24.2291L47.4598 23.0619L41.9423 17.4877V8.13236V6.63345H40.4569Z" stroke="#009746" stroke-width="1.83577"/>
<path d="M31.2002 41.0049H41.3624" stroke="white" stroke-width="0.275366"/>
<path d="M41.936 40.3311V31.7998" stroke="white" stroke-width="0.275366"/>
<path d="M42.269 30.6912L47.9942 24.9072" stroke="white" stroke-width="0.275366"/>
<path d="M48.089 23.7986L42.3638 18.0146" stroke="white" stroke-width="0.275366"/>
<path d="M42.0308 16.9052V7.31348" stroke="white" stroke-width="0.275366"/>
<path d="M41.3638 6.73535H31.0107" stroke="white" stroke-width="0.275366"/>
<path d="M25.6655 1.91602L30.0071 6.30218" stroke="white" stroke-width="0.275366"/>
<path d="M25.6172 45.8244L30.0542 41.3418" stroke="white" stroke-width="0.275366"/>
<path d="M10.5889 16.8581V9.0498H18.3179L10.5889 16.8581Z" fill="#EF7F1B"/>
<path d="M10.5889 30.9316V38.74H18.3179L10.5889 30.9316Z" fill="#EF7F1B"/>
<path d="M39.5977 16.8581V9.0498H31.8687L39.5977 16.8581Z" fill="#EF7F1B"/>
<path d="M39.5977 30.9316V38.74H31.8687L39.5977 30.9316Z" fill="#EF7F1B"/>
<path d="M25.3306 42.5483L6.58057 23.6058L10.8268 19.316L28.9565 37.6319L33.489 33.0529L15.5977 14.9781L25.7123 4.75977" stroke="#009746" stroke-width="1.83577"/>
<path d="M27.9083 7.12109L19.8931 14.9294L27.4312 22.545L34.5877 15.6042L42.6507 23.75L34.9217 31.5583" stroke="#009746" stroke-width="1.83577"/>
<path d="M34.2531 29.4855L29.3867 24.5692L31.7245 22.2074L34.5871 19.3154L38.9287 23.7016L35.3505 27.3166L33.1558 25.0994L35.1119 23.1232" stroke="#EF7F1B" stroke-width="1.37683"/>
<path d="M29.4822 8.9043L23.4707 14.9774L27.4306 18.978L33.299 13.0495" stroke="#EF7F1B" stroke-width="1.37683"/>
<path d="M31.3427 10.8809L27.1919 15.0742" stroke="#EF7F1B" stroke-width="1.37683"/>
<path d="M12.7837 16.5684L25.9994 29.9197" stroke="#EF7F1B" stroke-width="1.37683"/>
<path d="M26.3828 30.3525L29.8656 33.8711" stroke="#EF7F1B" stroke-width="1.37683"/>
<path d="M10.207 22.9307L12.2108 24.955" stroke="#EF7F1B" stroke-width="1.37683"/>
<path d="M12.6885 25.4375L14.6923 27.4619" stroke="#EF7F1B" stroke-width="1.37683"/>
<path d="M15.1216 27.9424L27.5262 40.4743" stroke="#EF7F1B" stroke-width="1.37683"/>
<path d="M24.6647 42.5003C25.0072 42.5003 25.2849 42.2197 25.2849 41.8737C25.2849 41.5276 25.0072 41.2471 24.6647 41.2471C24.3221 41.2471 24.0444 41.5276 24.0444 41.8737C24.0444 42.2197 24.3221 42.5003 24.6647 42.5003Z" stroke="white" stroke-width="0.183577"/>
<path d="M25.0465 6.06178C25.389 6.06178 25.6667 5.78125 25.6667 5.43519C25.6667 5.08913 25.389 4.80859 25.0465 4.80859C24.704 4.80859 24.4263 5.08913 24.4263 5.43519C24.4263 5.78125 24.704 6.06178 25.0465 6.06178Z" stroke="white" stroke-width="0.183577"/>
<path d="M25.1419 2.15679C25.458 2.15679 25.7144 1.89783 25.7144 1.5784C25.7144 1.25896 25.458 1 25.1419 1C24.8257 1 24.5693 1.25896 24.5693 1.5784C24.5693 1.89783 24.8257 2.15679 25.1419 2.15679Z" stroke="white" stroke-width="0.275366"/>
<path d="M19.7024 7.16851C20.0186 7.16851 20.2749 6.90955 20.2749 6.59011C20.2749 6.27068 20.0186 6.01172 19.7024 6.01172C19.3862 6.01172 19.1299 6.27068 19.1299 6.59011C19.1299 6.90955 19.3862 7.16851 19.7024 7.16851Z" stroke="white" stroke-width="0.275366"/>
<path d="M8.15699 7.26617C8.47319 7.26617 8.72951 7.00721 8.72951 6.68777C8.72951 6.36833 8.47319 6.10938 8.15699 6.10938C7.8408 6.10938 7.58447 6.36833 7.58447 6.68777C7.58447 7.00721 7.8408 7.26617 8.15699 7.26617Z" stroke="white" stroke-width="0.275366"/>
<path d="M8.05982 17.9664C8.37602 17.9664 8.63234 17.7074 8.63234 17.388C8.63234 17.0685 8.37602 16.8096 8.05982 16.8096C7.74363 16.8096 7.4873 17.0685 7.4873 17.388C7.4873 17.7074 7.74363 17.9664 8.05982 17.9664Z" stroke="white" stroke-width="0.275366"/>
<path d="M1.57252 24.8091C1.88871 24.8091 2.14504 24.5502 2.14504 24.2307C2.14504 23.9113 1.88871 23.6523 1.57252 23.6523C1.25633 23.6523 1 23.9113 1 24.2307C1 24.5502 1.25633 24.8091 1.57252 24.8091Z" stroke="white" stroke-width="0.275366"/>
<path d="M8.05982 31.9449C8.37602 31.9449 8.63234 31.6859 8.63234 31.3665C8.63234 31.047 8.37602 30.7881 8.05982 30.7881C7.74363 30.7881 7.4873 31.047 7.4873 31.3665C7.4873 31.6859 7.74363 31.9449 8.05982 31.9449Z" stroke="white" stroke-width="0.275366"/>
<path d="M8.25172 41.4869C8.56791 41.4869 8.82424 41.2279 8.82424 40.9085C8.82424 40.589 8.56791 40.3301 8.25172 40.3301C7.93552 40.3301 7.6792 40.589 7.6792 40.9085C7.6792 41.2279 7.93552 41.4869 8.25172 41.4869Z" stroke="white" stroke-width="0.275366"/>
<path d="M19.8919 41.5845C20.208 41.5845 20.4644 41.3256 20.4644 41.0061C20.4644 40.6867 20.208 40.4277 19.8919 40.4277C19.5757 40.4277 19.3193 40.6867 19.3193 41.0061C19.3193 41.3256 19.5757 41.5845 19.8919 41.5845Z" stroke="white" stroke-width="0.275366"/>
<path d="M25.0447 46.6939C25.3609 46.6939 25.6172 46.4349 25.6172 46.1155C25.6172 45.7961 25.3609 45.5371 25.0447 45.5371C24.7285 45.5371 24.4722 45.7961 24.4722 46.1155C24.4722 46.4349 24.7285 46.6939 25.0447 46.6939Z" stroke="white" stroke-width="0.275366"/>
<path d="M30.5794 41.5845C30.8955 41.5845 31.1519 41.3256 31.1519 41.0061C31.1519 40.6867 30.8955 40.4277 30.5794 40.4277C30.2632 40.4277 30.0068 40.6867 30.0068 41.0061C30.0068 41.3256 30.2632 41.5845 30.5794 41.5845Z" stroke="white" stroke-width="0.275366"/>
<path d="M41.9348 41.4869C42.251 41.4869 42.5073 41.2279 42.5073 40.9085C42.5073 40.589 42.251 40.3301 41.9348 40.3301C41.6186 40.3301 41.3623 40.589 41.3623 40.9085C41.3623 41.2279 41.6186 41.4869 41.9348 41.4869Z" stroke="white" stroke-width="0.275366"/>
<path d="M41.9348 31.7515C42.251 31.7515 42.5073 31.4926 42.5073 31.1731C42.5073 30.8537 42.251 30.5947 41.9348 30.5947C41.6186 30.5947 41.3623 30.8537 41.3623 31.1731C41.3623 31.4926 41.6186 31.7515 41.9348 31.7515Z" stroke="white" stroke-width="0.275366"/>
<path d="M48.3274 24.9068C48.6436 24.9068 48.8999 24.6478 48.8999 24.3284C48.8999 24.009 48.6436 23.75 48.3274 23.75C48.0112 23.75 47.7549 24.009 47.7549 24.3284C47.7549 24.6478 48.0112 24.9068 48.3274 24.9068Z" stroke="white" stroke-width="0.275366"/>
<path d="M42.0296 18.0621C42.3457 18.0621 42.6021 17.8031 42.6021 17.4837C42.6021 17.1642 42.3457 16.9053 42.0296 16.9053C41.7134 16.9053 41.457 17.1642 41.457 17.4837C41.457 17.8031 41.7134 18.0621 42.0296 18.0621Z" stroke="white" stroke-width="0.275366"/>
<path d="M41.9348 7.36187C42.251 7.36187 42.5073 7.10291 42.5073 6.78347C42.5073 6.46403 42.251 6.20508 41.9348 6.20508C41.6186 6.20508 41.3623 6.46403 41.3623 6.78347C41.3623 7.10291 41.6186 7.36187 41.9348 7.36187Z" stroke="white" stroke-width="0.275366"/>
<path d="M30.4846 7.16851C30.8008 7.16851 31.0571 6.90955 31.0571 6.59011C31.0571 6.27068 30.8008 6.01172 30.4846 6.01172C30.1684 6.01172 29.9121 6.27068 29.9121 6.59011C29.9121 6.90955 30.1684 7.16851 30.4846 7.16851Z" stroke="white" stroke-width="0.275366"/>
<path d="M27.1437 8.47194C27.4862 8.47194 27.7639 8.1914 27.7639 7.84534C27.7639 7.49929 27.4862 7.21875 27.1437 7.21875C26.8011 7.21875 26.5234 7.49929 26.5234 7.84534C26.5234 8.1914 26.8011 8.47194 27.1437 8.47194Z" stroke="white" stroke-width="0.183577"/>
<path d="M35.6363 31.511C35.9789 31.511 36.2566 31.2305 36.2566 30.8844C36.2566 30.5383 35.9789 30.2578 35.6363 30.2578C35.2938 30.2578 35.0161 30.5383 35.0161 30.8844C35.0161 31.2305 35.2938 31.511 35.6363 31.511Z" stroke="white" stroke-width="0.183577"/>
<path d="M24.2827 41.4398L6.67773 23.6542L10.9239 19.3644L28.9583 37.5838L33.3953 33.1013L15.5041 15.0264L24.6167 5.82031" stroke="white" stroke-width="0.183577"/>
<path d="M26.7149 8.22949L19.9878 15.0256C22.4687 17.5481 27.4305 22.5833 27.4305 22.5448C27.4305 22.5062 32.2175 17.9819 34.5393 15.6522L42.65 23.8462L36.1138 30.4495" stroke="white" stroke-width="0.183577"/>
<path d="M24.6631 1.96289L20.2261 6.20446" stroke="white" stroke-width="0.275366"/>
<path d="M19.1285 6.63965H8.77539" stroke="white" stroke-width="0.275366"/>
<path d="M8.15576 7.26562V16.7609" stroke="white" stroke-width="0.275366"/>
<path d="M7.72798 17.918L1.95508 23.7501" stroke="white" stroke-width="0.275366"/>
<path d="M1.90674 24.7139L7.91819 30.787" stroke="white" stroke-width="0.275366"/>
<path d="M8.10938 31.9443V40.3311" stroke="white" stroke-width="0.275366"/>
<path d="M8.87256 40.958H19.2733" stroke="white" stroke-width="0.275366"/>
<path d="M20.3232 41.4395L24.5694 45.7292" stroke="white" stroke-width="0.275366"/>
<path d="M40.4569 6.63345H30.4572L26.4779 2.73401L25.142 1.43262L23.7107 2.87861L19.8368 6.63345H9.54082H8.10484V8.37336V17.4877L2.76591 22.8814L1.39453 24.1828L2.43203 25.2307L8.10484 30.9616V39.5103V41.0055H9.49311H19.8368L24.0924 45.3049L25.1146 46.4028L26.2017 45.3049L30.4572 41.0055H40.5523H41.9423V39.1729V30.9616L47.4598 25.3878L48.6153 24.2291L47.4598 23.0619L41.9423 17.4877V8.13236V6.63345H40.4569Z" stroke="#009746" stroke-width="1.83577"/>
<path d="M31.2002 41.0049H41.3624" stroke="white" stroke-width="0.275366"/>
<path d="M41.936 40.3311V31.7998" stroke="white" stroke-width="0.275366"/>
<path d="M42.269 30.6912L47.9942 24.9072" stroke="white" stroke-width="0.275366"/>
<path d="M48.089 23.7986L42.3638 18.0146" stroke="white" stroke-width="0.275366"/>
<path d="M42.0308 16.9052V7.31348" stroke="white" stroke-width="0.275366"/>
<path d="M41.3638 6.73535H31.0107" stroke="white" stroke-width="0.275366"/>
<path d="M25.6655 1.91602L30.0071 6.30218" stroke="white" stroke-width="0.275366"/>
<path d="M25.6172 45.8244L30.0542 41.3418" stroke="white" stroke-width="0.275366"/>
<path d="M10.5889 16.8581V9.0498H18.3179L10.5889 16.8581Z" fill="#EF7F1B"/>
<path d="M10.5889 30.9316V38.74H18.3179L10.5889 30.9316Z" fill="#EF7F1B"/>
<path d="M39.5977 16.8581V9.0498H31.8687L39.5977 16.8581Z" fill="#EF7F1B"/>
<path d="M39.5977 30.9316V38.74H31.8687L39.5977 30.9316Z" fill="#EF7F1B"/>
<path d="M25.3306 42.5483L6.58057 23.6058L10.8268 19.316L28.9565 37.6319L33.489 33.0529L15.5977 14.9781L25.7123 4.75977" stroke="#009746" stroke-width="1.83577"/>
<path d="M27.9083 7.12109L19.8931 14.9294L27.4312 22.545L34.5877 15.6042L42.6507 23.75L34.9217 31.5583" stroke="#009746" stroke-width="1.83577"/>
<path d="M34.2531 29.4855L29.3867 24.5692L31.7245 22.2074L34.5871 19.3154L38.9287 23.7016L35.3505 27.3166L33.1558 25.0994L35.1119 23.1232" stroke="#EF7F1B" stroke-width="1.37683"/>
<path d="M29.4822 8.9043L23.4707 14.9774L27.4306 18.978L33.299 13.0495" stroke="#EF7F1B" stroke-width="1.37683"/>
<path d="M31.3427 10.8809L27.1919 15.0742" stroke="#EF7F1B" stroke-width="1.37683"/>
<path d="M12.7837 16.5684L25.9994 29.9197" stroke="#EF7F1B" stroke-width="1.37683"/>
<path d="M26.3828 30.3525L29.8656 33.8711" stroke="#EF7F1B" stroke-width="1.37683"/>
<path d="M10.207 22.9307L12.2108 24.955" stroke="#EF7F1B" stroke-width="1.37683"/>
<path d="M12.6885 25.4375L14.6923 27.4619" stroke="#EF7F1B" stroke-width="1.37683"/>
<path d="M15.1216 27.9424L27.5262 40.4743" stroke="#EF7F1B" stroke-width="1.37683"/>
<path d="M24.6647 42.5003C25.0072 42.5003 25.2849 42.2197 25.2849 41.8737C25.2849 41.5276 25.0072 41.2471 24.6647 41.2471C24.3221 41.2471 24.0444 41.5276 24.0444 41.8737C24.0444 42.2197 24.3221 42.5003 24.6647 42.5003Z" stroke="white" stroke-width="0.183577"/>
<path d="M25.0465 6.06178C25.389 6.06178 25.6667 5.78125 25.6667 5.43519C25.6667 5.08913 25.389 4.80859 25.0465 4.80859C24.704 4.80859 24.4263 5.08913 24.4263 5.43519C24.4263 5.78125 24.704 6.06178 25.0465 6.06178Z" stroke="white" stroke-width="0.183577"/>
<path d="M25.1419 2.15679C25.458 2.15679 25.7144 1.89783 25.7144 1.5784C25.7144 1.25896 25.458 1 25.1419 1C24.8257 1 24.5693 1.25896 24.5693 1.5784C24.5693 1.89783 24.8257 2.15679 25.1419 2.15679Z" stroke="white" stroke-width="0.275366"/>
<path d="M19.7024 7.16851C20.0186 7.16851 20.2749 6.90955 20.2749 6.59011C20.2749 6.27068 20.0186 6.01172 19.7024 6.01172C19.3862 6.01172 19.1299 6.27068 19.1299 6.59011C19.1299 6.90955 19.3862 7.16851 19.7024 7.16851Z" stroke="white" stroke-width="0.275366"/>
<path d="M8.15699 7.26617C8.47319 7.26617 8.72951 7.00721 8.72951 6.68777C8.72951 6.36833 8.47319 6.10938 8.15699 6.10938C7.8408 6.10938 7.58447 6.36833 7.58447 6.68777C7.58447 7.00721 7.8408 7.26617 8.15699 7.26617Z" stroke="white" stroke-width="0.275366"/>
<path d="M8.05982 17.9664C8.37602 17.9664 8.63234 17.7074 8.63234 17.388C8.63234 17.0685 8.37602 16.8096 8.05982 16.8096C7.74363 16.8096 7.4873 17.0685 7.4873 17.388C7.4873 17.7074 7.74363 17.9664 8.05982 17.9664Z" stroke="white" stroke-width="0.275366"/>
<path d="M1.57252 24.8091C1.88871 24.8091 2.14504 24.5502 2.14504 24.2307C2.14504 23.9113 1.88871 23.6523 1.57252 23.6523C1.25633 23.6523 1 23.9113 1 24.2307C1 24.5502 1.25633 24.8091 1.57252 24.8091Z" stroke="white" stroke-width="0.275366"/>
<path d="M8.05982 31.9449C8.37602 31.9449 8.63234 31.6859 8.63234 31.3665C8.63234 31.047 8.37602 30.7881 8.05982 30.7881C7.74363 30.7881 7.4873 31.047 7.4873 31.3665C7.4873 31.6859 7.74363 31.9449 8.05982 31.9449Z" stroke="white" stroke-width="0.275366"/>
<path d="M8.25172 41.4869C8.56791 41.4869 8.82424 41.2279 8.82424 40.9085C8.82424 40.589 8.56791 40.3301 8.25172 40.3301C7.93552 40.3301 7.6792 40.589 7.6792 40.9085C7.6792 41.2279 7.93552 41.4869 8.25172 41.4869Z" stroke="white" stroke-width="0.275366"/>
<path d="M19.8919 41.5845C20.208 41.5845 20.4644 41.3256 20.4644 41.0061C20.4644 40.6867 20.208 40.4277 19.8919 40.4277C19.5757 40.4277 19.3193 40.6867 19.3193 41.0061C19.3193 41.3256 19.5757 41.5845 19.8919 41.5845Z" stroke="white" stroke-width="0.275366"/>
<path d="M25.0447 46.6939C25.3609 46.6939 25.6172 46.4349 25.6172 46.1155C25.6172 45.7961 25.3609 45.5371 25.0447 45.5371C24.7285 45.5371 24.4722 45.7961 24.4722 46.1155C24.4722 46.4349 24.7285 46.6939 25.0447 46.6939Z" stroke="white" stroke-width="0.275366"/>
<path d="M30.5794 41.5845C30.8955 41.5845 31.1519 41.3256 31.1519 41.0061C31.1519 40.6867 30.8955 40.4277 30.5794 40.4277C30.2632 40.4277 30.0068 40.6867 30.0068 41.0061C30.0068 41.3256 30.2632 41.5845 30.5794 41.5845Z" stroke="white" stroke-width="0.275366"/>
<path d="M41.9348 41.4869C42.251 41.4869 42.5073 41.2279 42.5073 40.9085C42.5073 40.589 42.251 40.3301 41.9348 40.3301C41.6186 40.3301 41.3623 40.589 41.3623 40.9085C41.3623 41.2279 41.6186 41.4869 41.9348 41.4869Z" stroke="white" stroke-width="0.275366"/>
<path d="M41.9348 31.7515C42.251 31.7515 42.5073 31.4926 42.5073 31.1731C42.5073 30.8537 42.251 30.5947 41.9348 30.5947C41.6186 30.5947 41.3623 30.8537 41.3623 31.1731C41.3623 31.4926 41.6186 31.7515 41.9348 31.7515Z" stroke="white" stroke-width="0.275366"/>
<path d="M48.3274 24.9068C48.6436 24.9068 48.8999 24.6478 48.8999 24.3284C48.8999 24.009 48.6436 23.75 48.3274 23.75C48.0112 23.75 47.7549 24.009 47.7549 24.3284C47.7549 24.6478 48.0112 24.9068 48.3274 24.9068Z" stroke="white" stroke-width="0.275366"/>
<path d="M42.0296 18.0621C42.3457 18.0621 42.6021 17.8031 42.6021 17.4837C42.6021 17.1642 42.3457 16.9053 42.0296 16.9053C41.7134 16.9053 41.457 17.1642 41.457 17.4837C41.457 17.8031 41.7134 18.0621 42.0296 18.0621Z" stroke="white" stroke-width="0.275366"/>
<path d="M41.9348 7.36187C42.251 7.36187 42.5073 7.10291 42.5073 6.78347C42.5073 6.46403 42.251 6.20508 41.9348 6.20508C41.6186 6.20508 41.3623 6.46403 41.3623 6.78347C41.3623 7.10291 41.6186 7.36187 41.9348 7.36187Z" stroke="white" stroke-width="0.275366"/>
<path d="M30.4846 7.16851C30.8008 7.16851 31.0571 6.90955 31.0571 6.59011C31.0571 6.27068 30.8008 6.01172 30.4846 6.01172C30.1684 6.01172 29.9121 6.27068 29.9121 6.59011C29.9121 6.90955 30.1684 7.16851 30.4846 7.16851Z" stroke="white" stroke-width="0.275366"/>
<path d="M27.1437 8.47194C27.4862 8.47194 27.7639 8.1914 27.7639 7.84534C27.7639 7.49929 27.4862 7.21875 27.1437 7.21875C26.8011 7.21875 26.5234 7.49929 26.5234 7.84534C26.5234 8.1914 26.8011 8.47194 27.1437 8.47194Z" stroke="white" stroke-width="0.183577"/>
<path d="M35.6363 31.511C35.9789 31.511 36.2566 31.2305 36.2566 30.8844C36.2566 30.5383 35.9789 30.2578 35.6363 30.2578C35.2938 30.2578 35.0161 30.5383 35.0161 30.8844C35.0161 31.2305 35.2938 31.511 35.6363 31.511Z" stroke="white" stroke-width="0.183577"/>
<path d="M24.2827 41.4398L6.67773 23.6542L10.9239 19.3644L28.9583 37.5838L33.3953 33.1013L15.5041 15.0264L24.6167 5.82031" stroke="white" stroke-width="0.183577"/>
<path d="M26.7149 8.22949L19.9878 15.0256C22.4687 17.5481 27.4305 22.5833 27.4305 22.5448C27.4305 22.5062 32.2175 17.9819 34.5393 15.6522L42.65 23.8462L36.1138 30.4495" stroke="white" stroke-width="0.183577"/>
<path d="M24.6631 1.96289L20.2261 6.20446" stroke="white" stroke-width="0.275366"/>
<path d="M19.1285 6.63965H8.77539" stroke="white" stroke-width="0.275366"/>
<path d="M8.15576 7.26562V16.7609" stroke="white" stroke-width="0.275366"/>
<path d="M7.72798 17.918L1.95508 23.7501" stroke="white" stroke-width="0.275366"/>
<path d="M1.90674 24.7139L7.91819 30.787" stroke="white" stroke-width="0.275366"/>
<path d="M8.10938 31.9443V40.3311" stroke="white" stroke-width="0.275366"/>
<path d="M8.87256 40.958H19.2733" stroke="white" stroke-width="0.275366"/>
<path d="M20.3232 41.4395L24.5694 45.7292" stroke="white" stroke-width="0.275366"/>
</svg>
