<svg width="44" height="44" viewBox="0 0 44 44" fill="none" xmlns="http://www.w3.org/2000/svg">
<g clip-path="url(#clip0_111_6526)">
<path d="M22 44C34.1503 44 44 34.1503 44 22C44 9.84974 34.1503 0 22 0C9.84974 0 0 9.84974 0 22C0 34.1503 9.84974 44 22 44Z" fill="#009746"/>
<path d="M27.0426 20.985L16.7119 10.6095L29.8558 18.1672L27.0426 20.985ZM14.0157 10C13.4072 10.3188 13 10.9002 13 11.655V32.345C13 33.0998 13.4072 33.6812 14.0157 34L26.0268 21.9977L14.0157 10ZM33.9188 20.5771L31.1617 18.9783L28.0864 22.0023L31.1617 25.0264L33.9749 23.4276C34.8175 22.7572 34.8175 21.2475 33.9188 20.5771ZM16.7119 33.3952L29.8558 25.8375L27.0426 23.0197L16.7119 33.3952Z" fill="white"/>
</g>
<defs>
<clipPath id="clip0_111_6526">
<rect width="44" height="44" fill="white"/>
</clipPath>
</defs>
</svg>
