<svg width="44" height="44" viewBox="0 0 44 44" fill="none" xmlns="http://www.w3.org/2000/svg">
<g clip-path="url(#clip0_111_6522)">
<path d="M22 0C9.84969 0 0 9.84969 0 22C0 34.1502 9.84969 44 22 44C34.1502 44 44 34.1502 44 22C44 9.84969 34.1502 0 22 0ZM32.1974 14.9618C31.8663 18.4406 30.4337 26.8824 29.7046 30.7787C29.3962 32.4273 28.789 32.9802 28.2013 33.0341C26.9238 33.1518 25.9534 32.1898 24.7161 31.3788C22.7797 30.1096 21.686 29.3194 19.8062 28.0808C17.6342 26.6495 19.0423 25.863 20.2802 24.5768C20.6041 24.2403 26.2332 19.1202 26.3423 18.6558C26.3558 18.5977 26.3688 18.3808 26.2398 18.2668C26.1109 18.1529 25.9213 18.1915 25.7842 18.2225C25.59 18.2666 22.4968 20.3111 16.5045 24.356C15.6266 24.959 14.8313 25.2527 14.1188 25.2373C13.3332 25.2203 11.8223 24.7933 10.6989 24.4281C9.32116 23.9802 8.22613 23.7435 8.3215 22.9829C8.37118 22.5867 8.91675 22.1815 9.95819 21.7675C16.3717 18.9732 20.6483 17.1311 22.7882 16.2409C28.8977 13.6996 30.1673 13.2582 30.9947 13.2435C31.1768 13.2404 31.5838 13.2855 31.8472 13.4994C32.0225 13.6518 32.1343 13.8644 32.1603 14.0952C32.2051 14.3817 32.2174 14.6724 32.1974 14.9618Z" fill="#009746"/>
</g>
<defs>
<clipPath id="clip0_111_6522">
<rect width="44" height="44" fill="white"/>
</clipPath>
</defs>
</svg>
